<svg xmlns="http://www.w3.org/2000/svg" viewBox="0 0 64 64"><defs><style>.cls-1{fill:#212121}</style></defs><g id="behance" transform="translate(-3.723 -5.101)"><path id="Path_27" data-name="Path 27" class="cls-1" d="M39.114 27.257c-4.125 0-4.7 4.117-4.7 4.117h8.769s.058-4.117-4.069-4.117z" transform="translate(9.194 6.637)"/><path id="Path_28" data-name="Path 28" class="cls-1" d="M24.513 30.425h-7.774v7.137h7.382c1.107-.026 3.206-.348 3.206-3.47-.002-3.705-2.814-3.667-2.814-3.667z" transform="translate(3.899 7.586)"/><path id="Path_29" data-name="Path 29" class="cls-1" d="M35.724 5.1a32 32 0 1 0 32 32 32 32 0 0 0-32-32zm6.736 19.663h11.016v3.288H42.46zm-5.569 17.248c0 8.149-8.48 7.88-8.48 7.88H14.517v-26.7h13.895c4.221 0 7.553 2.331 7.553 7.109s-4.074 5.081-4.074 5.081c5.371-.001 5 6.63 5 6.63zm20.609-.437H43.663a4.344 4.344 0 0 0 4.7 4.647c4.437 0 4.282-2.873 4.282-2.873h4.7c0 7.624-9.14 7.1-9.14 7.1-10.963 0-10.257-10.208-10.257-10.208S37.936 29.985 48.2 29.985c10.812 0 9.3 11.589 9.3 11.589z"/><path id="Path_30" data-name="Path 30" class="cls-1" d="M26.4 25.45c0-2.777-1.888-2.777-1.888-2.777h-7.773v5.957h7.292c1.258 0 2.369-.404 2.369-3.18z" transform="translate(3.899 5.264)"/></g></svg>