<svg width="67" height="67" xmlns="http://www.w3.org/2000/svg"><path fill="none" d="M-1-1h582v402H-1z"/><path fill-rule="evenodd" clip-rule="evenodd" fill="#212121" d="M44.469 24.535c-.027.039-2.375 3.43-8.152 5.79.34.698.669 1.408.973 2.122.108.256.214.507.316.758 5.027-.633 9.979.431 10.191.475a14.57 14.57 0 0 0-3.328-9.145zm-5.971 10.979c1.919 5.274 2.699 9.57 2.848 10.452a14.638 14.638 0 0 0 6.27-9.815c-.302-.098-4.395-1.394-9.118-.637zm.383 11.789c-.216-1.279-1.066-5.76-3.125-11.111l-.098.033c-8.633 3.008-11.453 9.074-11.483 9.141a14.601 14.601 0 0 0 8.994 3.098 14.574 14.574 0 0 0 5.712-1.161zm-3.69-19.159c5.521-2.069 7.605-5.242 7.641-5.296a14.564 14.564 0 0 0-9.663-3.649c-1.189 0-2.343.144-3.448.41.219.294 2.967 3.94 5.47 8.535zm-.433 5.623a49.415 49.415 0 0 0-1.187-2.487c-7.535 2.256-14.764 2.094-15.023 2.084-.004.157-.012.309-.012.467 0 3.759 1.418 7.187 3.749 9.776-.005-.006 4-7.111 11.896-9.665.19-.063.385-.12.577-.175zm15.196-3.386a17.22 17.22 0 0 1 0 6.898 17.07 17.07 0 0 1-4.669 8.667 17.77 17.77 0 0 1-2.535 2.092 17.462 17.462 0 0 1-2.911 1.579 17.163 17.163 0 0 1-3.219.997 17.124 17.124 0 0 1-15.567-4.668 17.166 17.166 0 0 1-3.672-5.446 17.149 17.149 0 0 1-1.001-3.221 17.375 17.375 0 0 1 .001-6.898 17.09 17.09 0 0 1 4.672-8.668 17.167 17.167 0 0 1 5.445-3.672 16.985 16.985 0 0 1 3.22-.998 17.237 17.237 0 0 1 10.121.998c1.016.431 1.995.963 2.911 1.583.906.614 1.76 1.316 2.535 2.089a17.266 17.266 0 0 1 3.67 5.448c.439 1.033.774 2.117.999 3.22zm-17.595-1.354c-2.533-4.5-5.239-8.172-5.434-8.432a14.654 14.654 0 0 0-8.076 10.219c.386.003 6.484.08 13.51-1.787zM33 64C16.432 64 3 50.568 3 34 3 17.431 16.432 4 33 4s30 13.431 30 30c0 16.568-13.432 30-30 30z"/></svg>