<svg xmlns="http://www.w3.org/2000/svg" viewBox="0 0 64 64"><path d="M32.001 0a32 32 0 1 0 32 32 32 32 0 0 0-32-32zm16.12 25.549c.017.346.023.693.023 1.044 0 10.658-8.112 22.945-22.945 22.945a22.835 22.835 0 0 1-12.362-3.622 16.492 16.492 0 0 0 1.923.112 16.18 16.18 0 0 0 10.017-3.452 8.076 8.076 0 0 1-7.532-5.6 7.876 7.876 0 0 0 1.517.144 8.014 8.014 0 0 0 2.125-.282 8.071 8.071 0 0 1-6.47-7.906v-.1a8.037 8.037 0 0 0 3.653 1.01 8.075 8.075 0 0 1-2.5-10.768 22.9 22.9 0 0 0 16.624 8.425 8.069 8.069 0 0 1 13.741-7.355 16.108 16.108 0 0 0 5.122-1.957 8.088 8.088 0 0 1-3.546 4.456 16.123 16.123 0 0 0 4.633-1.27 16.293 16.293 0 0 1-4.023 4.176z" fill="#212121"/></svg>