<svg xmlns="http://www.w3.org/2000/svg" viewBox="0 0 64 64">
  <defs>
    <style>
      .cls-1 {
        fill: #212121;
      }
    </style>
  </defs>
  <g id="behance" transform="translate(-3.723 -5.101)">
    <path id="Path_27" data-name="Path 27" class="cls-1" d="M39.114,27.257c-4.125,0-4.7,4.117-4.7,4.117h8.769S43.241,27.257,39.114,27.257Z" transform="translate(9.194 6.637)"/>
    <path id="Path_28" data-name="Path 28" class="cls-1" d="M24.513,30.425H16.739v7.137h6.882c.117,0,.292,0,.5,0,1.107-.026,3.206-.348,3.206-3.47C27.325,30.387,24.513,30.425,24.513,30.425Z" transform="translate(3.899 7.586)"/>
    <path id="Path_29" data-name="Path 29" class="cls-1" d="M35.724,5.1a32,32,0,1,0,32,32A32,32,0,0,0,35.724,5.1ZM42.46,24.763H53.476v3.288H42.46ZM36.891,42.011c0,8.149-8.48,7.88-8.48,7.88H14.517v-26.7H28.412c4.221,0,7.553,2.331,7.553,7.109s-4.074,5.081-4.074,5.081C37.262,35.38,36.891,42.011,36.891,42.011ZM57.5,41.574H43.663a4.344,4.344,0,0,0,4.7,4.647c4.437,0,4.282-2.873,4.282-2.873h4.7c0,7.624-9.14,7.1-9.14,7.1-10.963,0-10.257-10.208-10.257-10.208S37.936,29.985,48.2,29.985C59.012,29.985,57.5,41.574,57.5,41.574Z" transform="translate(0)"/>
    <path id="Path_30" data-name="Path 30" class="cls-1" d="M26.4,25.45c0-2.777-1.888-2.777-1.888-2.777H16.739V28.63h7.292C25.289,28.63,26.4,28.226,26.4,25.45Z" transform="translate(3.899 5.264)"/>
  </g>
</svg>
